<svg width="144" height="144" viewBox="0 0 144 144" fill="none" xmlns="http://www.w3.org/2000/svg">
<path d="M0 43.2C0 59.2055 8.70424 73.178 21.6373 80.6422C21.8266 75.1817 22.7311 69.9029 24.2603 64.8968C18.2174 59.6174 14.4 51.8545 14.4 43.2C14.4 27.2942 27.2942 14.4 43.2 14.4C51.8545 14.4 59.6174 18.2174 64.8968 24.2603C69.9029 22.7311 75.1817 21.8266 80.6422 21.6373C73.178 8.70424 59.2055 0 43.2 0C19.3413 0 0 19.3413 0 43.2Z" fill="black"/>
<path d="M43.2 86.4C67.0587 86.4 86.4 67.0587 86.4 43.2C86.4 40.7803 86.2011 38.4071 85.8187 36.0958C84.8206 36.0323 83.8141 36 82.8 36C78.8731 36 75.0593 36.4836 71.4146 37.3946C71.7984 39.2698 72 41.2113 72 43.2C72 59.1058 59.1058 72 43.2 72C41.2113 72 39.2698 71.7984 37.3946 71.4146C36.4836 75.0593 36 78.8731 36 82.8C36 83.8141 36.0323 84.8206 36.0958 85.8187C38.4071 86.2011 40.7803 86.4 43.2 86.4Z" fill="black"/>
<path d="M129.6 82.8C129.6 108.647 108.647 129.6 82.8 129.6C57.9672 129.6 37.6517 110.259 36.0958 85.8187C30.9057 84.96 26.0278 83.1761 21.6373 80.6422C21.6125 81.3584 21.6 82.0777 21.6 82.8C21.6 116.6 49.0002 144 82.8 144C116.6 144 144 116.6 144 82.8C144 49.0002 116.6 21.6 82.8 21.6C82.0777 21.6 81.3584 21.6125 80.6422 21.6373C83.1761 26.0278 84.96 30.9057 85.8187 36.0958C110.259 37.6517 129.6 57.9672 129.6 82.8Z" fill="black"/>
<path d="M64.8968 24.2603C45.4945 30.1867 30.1867 45.4945 24.2603 64.8968C27.9348 68.107 32.4322 70.399 37.3946 71.4146C41.5687 54.7146 54.7146 41.5687 71.4146 37.3946C70.399 32.4322 68.107 27.9348 64.8968 24.2603Z" fill="black"/>
</svg>
